# xmcd CD database file
#
# Track frame offsets:
#	150
#	39340
#	61152
#	88740
#	118605
#	145805
#	168982
#	194712
#	214320
#	236745
#	257726
#
# Disc length: 3674 seconds
#
# Revision: 0
# Processed by: cddbd v1.4PL0 Copyright (c) Steve Scherf et al.
# Submitted via: CDex 1.51
#
DISCID=a00e580b
DTITLE=Roberta Kelly - Trouble Maker
DYEAR=1976
DGENRE=Jazz
TTITLE0=Trouble Maker
TTITLE1=Love Power
TTITLE2=Thing I'm Gonna Break
TTITLE3=Innocent
TTITLE4=The Family
TTITLE5=Zodiacs
TTITLE6=Love-Sign
TTITLE7=Funky Stardust
TTITLE8=I'm Sagittarius
TTITLE9=Sunburst
TTITLE10=Moondreaming
EXTD=YEAR: 1976
EXTT0=
EXTT1=
EXTT2=
EXTT3=
EXTT4=
EXTT5=
EXTT6=
EXTT7=
EXTT8=
EXTT9=
EXTT10=
PLAYORDER=
